<svg width="267" height="145" viewBox="0 0 267 145" fill="none" xmlns="http://www.w3.org/2000/svg">
<rect width="267" height="145" fill="#E5E5E5"/>
<g id="card" filter="url(#filter0_d_0_1)">
<rect x="5" y="1" width="257" height="135" stroke="black" stroke-width="2" shape-rendering="crispEdges"/>
</g>
<path id="Deadline" d="M4.5 0.5H154.793L128.793 26.5H4.5V0.5Z" stroke="black"/>
<path id="name" d="M22.2305 55.3203V62H19.9805V44.9375H26.2734C28.1406 44.9375 29.6016 45.4141 30.6562 46.3672C31.7188 47.3203 32.25 48.582 32.25 50.1523C32.25 51.8086 31.7305 53.0859 30.6914 53.9844C29.6602 54.875 28.1797 55.3203 26.25 55.3203H22.2305ZM22.2305 53.4805H26.2734C27.4766 53.4805 28.3984 53.1992 29.0391 52.6367C29.6797 52.0664 30 51.2461 30 50.1758C30 49.1602 29.6797 48.3477 29.0391 47.7383C28.3984 47.1289 27.5195 46.8125 26.4023 46.7891H22.2305V53.4805ZM40.9102 51.2656C40.582 51.2109 40.2266 51.1836 39.8438 51.1836C38.4219 51.1836 37.457 51.7891 36.9492 53V62H34.7812V49.3203H36.8906L36.9258 50.7852C37.6367 49.6523 38.6445 49.0859 39.9492 49.0859C40.3711 49.0859 40.6914 49.1406 40.9102 49.25V51.2656ZM42.1055 55.543C42.1055 54.3008 42.3477 53.1836 42.832 52.1914C43.3242 51.1992 44.0039 50.4336 44.8711 49.8945C45.7461 49.3555 46.7422 49.0859 47.8594 49.0859C49.5859 49.0859 50.9805 49.6836 52.043 50.8789C53.1133 52.0742 53.6484 53.6641 53.6484 55.6484V55.8008C53.6484 57.0352 53.4102 58.1445 52.9336 59.1289C52.4648 60.1055 51.7891 60.8672 50.9062 61.4141C50.0312 61.9609 49.0234 62.2344 47.8828 62.2344C46.1641 62.2344 44.7695 61.6367 43.6992 60.4414C42.6367 59.2461 42.1055 57.6641 42.1055 55.6953V55.543ZM44.2852 55.8008C44.2852 57.207 44.6094 58.3359 45.2578 59.1875C45.9141 60.0391 46.7891 60.4648 47.8828 60.4648C48.9844 60.4648 49.8594 60.0352 50.5078 59.1758C51.1562 58.3086 51.4805 57.0977 51.4805 55.543C51.4805 54.1523 51.1484 53.0273 50.4844 52.168C49.8281 51.3008 48.9531 50.8672 47.8594 50.8672C46.7891 50.8672 45.9258 51.293 45.2695 52.1445C44.6133 52.9961 44.2852 54.2148 44.2852 55.8008ZM58.6055 49.3203V63.4648C58.6055 65.9023 57.5 67.1211 55.2891 67.1211C54.8125 67.1211 54.3711 67.0508 53.9648 66.9102V65.1758C54.2148 65.2383 54.543 65.2695 54.9492 65.2695C55.4336 65.2695 55.8008 65.1367 56.0508 64.8711C56.3086 64.6133 56.4375 64.1602 56.4375 63.5117V49.3203H58.6055ZM56.2148 45.957C56.2148 45.6133 56.3203 45.3203 56.5312 45.0781C56.75 44.8281 57.0664 44.7031 57.4805 44.7031C57.9023 44.7031 58.2227 44.8242 58.4414 45.0664C58.6602 45.3086 58.7695 45.6055 58.7695 45.957C58.7695 46.3086 58.6602 46.6016 58.4414 46.8359C58.2227 47.0703 57.9023 47.1875 57.4805 47.1875C57.0586 47.1875 56.7422 47.0703 56.5312 46.8359C56.3203 46.6016 56.2148 46.3086 56.2148 45.957ZM67.3711 62.2344C65.6523 62.2344 64.2539 61.6719 63.1758 60.5469C62.0977 59.4141 61.5586 57.9023 61.5586 56.0117V55.6133C61.5586 54.3555 61.7969 53.2344 62.2734 52.25C62.7578 51.2578 63.4297 50.4844 64.2891 49.9297C65.1562 49.3672 66.0938 49.0859 67.1016 49.0859C68.75 49.0859 70.0312 49.6289 70.9453 50.7148C71.8594 51.8008 72.3164 53.3555 72.3164 55.3789V56.2812H63.7266C63.7578 57.5312 64.1211 58.543 64.8164 59.3164C65.5195 60.082 66.4102 60.4648 67.4883 60.4648C68.2539 60.4648 68.9023 60.3086 69.4336 59.9961C69.9648 59.6836 70.4297 59.2695 70.8281 58.7539L72.1523 59.7852C71.0898 61.418 69.4961 62.2344 67.3711 62.2344ZM67.1016 50.8672C66.2266 50.8672 65.4922 51.1875 64.8984 51.8281C64.3047 52.4609 63.9375 53.3516 63.7969 54.5H70.1484V54.3359C70.0859 53.2344 69.7891 52.3828 69.2578 51.7812C68.7266 51.1719 68.0078 50.8672 67.1016 50.8672ZM79.9219 60.4648C80.6953 60.4648 81.3711 60.2305 81.9492 59.7617C82.5273 59.293 82.8477 58.707 82.9102 58.0039H84.9609C84.9219 58.7305 84.6719 59.4219 84.2109 60.0781C83.75 60.7344 83.1328 61.2578 82.3594 61.6484C81.5938 62.0391 80.7812 62.2344 79.9219 62.2344C78.1953 62.2344 76.8203 61.6602 75.7969 60.5117C74.7812 59.3555 74.2734 57.7773 74.2734 55.7773V55.4141C74.2734 54.1797 74.5 53.082 74.9531 52.1211C75.4062 51.1602 76.0547 50.4141 76.8984 49.8828C77.75 49.3516 78.7539 49.0859 79.9102 49.0859C81.332 49.0859 82.5117 49.5117 83.4492 50.3633C84.3945 51.2148 84.8984 52.3203 84.9609 53.6797H82.9102C82.8477 52.8594 82.5352 52.1875 81.9727 51.6641C81.418 51.1328 80.7305 50.8672 79.9102 50.8672C78.8086 50.8672 77.9531 51.2656 77.3438 52.0625C76.7422 52.8516 76.4414 53.9961 76.4414 55.4961V55.9062C76.4414 57.3672 76.7422 58.4922 77.3438 59.2812C77.9453 60.0703 78.8047 60.4648 79.9219 60.4648ZM90.3398 46.25V49.3203H92.707V50.9961H90.3398V58.8594C90.3398 59.3672 90.4453 59.75 90.6562 60.0078C90.8672 60.2578 91.2266 60.3828 91.7344 60.3828C91.9844 60.3828 92.3281 60.3359 92.7656 60.2422V62C92.1953 62.1562 91.6406 62.2344 91.1016 62.2344C90.1328 62.2344 89.4023 61.9414 88.9102 61.3555C88.418 60.7695 88.1719 59.9375 88.1719 58.8594V50.9961H85.8633V49.3203H88.1719V46.25H90.3398ZM33.0938 90H30.832L22.2422 76.8516V90H19.9805V72.9375H22.2422L30.8555 86.1445V72.9375H33.0938V90ZM44.5781 90C44.4531 89.75 44.3516 89.3047 44.2734 88.6641C43.2656 89.7109 42.0625 90.2344 40.6641 90.2344C39.4141 90.2344 38.3867 89.8828 37.582 89.1797C36.7852 88.4688 36.3867 87.5703 36.3867 86.4844C36.3867 85.1641 36.8867 84.1406 37.8867 83.4141C38.8945 82.6797 40.3086 82.3125 42.1289 82.3125H44.2383V81.3164C44.2383 80.5586 44.0117 79.957 43.5586 79.5117C43.1055 79.0586 42.4375 78.832 41.5547 78.832C40.7812 78.832 40.1328 79.0273 39.6094 79.418C39.0859 79.8086 38.8242 80.2812 38.8242 80.8359H36.6445C36.6445 80.2031 36.8672 79.5938 37.3125 79.0078C37.7656 78.4141 38.375 77.9453 39.1406 77.6016C39.9141 77.2578 40.7617 77.0859 41.6836 77.0859C43.1445 77.0859 44.2891 77.4531 45.1172 78.1875C45.9453 78.9141 46.375 79.918 46.4062 81.1992V87.0352C46.4062 88.1992 46.5547 89.125 46.8516 89.8125V90H44.5781ZM40.9805 88.3477C41.6602 88.3477 42.3047 88.1719 42.9141 87.8203C43.5234 87.4688 43.9648 87.0117 44.2383 86.4492V83.8477H42.5391C39.8828 83.8477 38.5547 84.625 38.5547 86.1797C38.5547 86.8594 38.7812 87.3906 39.2344 87.7734C39.6875 88.1562 40.2695 88.3477 40.9805 88.3477ZM51.8438 77.3203L51.9023 78.7266C52.832 77.6328 54.0859 77.0859 55.6641 77.0859C57.4375 77.0859 58.6445 77.7656 59.2852 79.125C59.707 78.5156 60.2539 78.0234 60.9258 77.6484C61.6055 77.2734 62.4062 77.0859 63.3281 77.0859C66.1094 77.0859 67.5234 78.5586 67.5703 81.5039V90H65.4023V81.6328C65.4023 80.7266 65.1953 80.0508 64.7812 79.6055C64.3672 79.1523 63.6719 78.9258 62.6953 78.9258C61.8906 78.9258 61.2227 79.168 60.6914 79.6523C60.1602 80.1289 59.8516 80.7734 59.7656 81.5859V90H57.5859V81.6914C57.5859 79.8477 56.6836 78.9258 54.8789 78.9258C53.457 78.9258 52.4844 79.5312 51.9609 80.7422V90H49.793V77.3203H51.8438ZM76.1133 90.2344C74.3945 90.2344 72.9961 89.6719 71.918 88.5469C70.8398 87.4141 70.3008 85.9023 70.3008 84.0117V83.6133C70.3008 82.3555 70.5391 81.2344 71.0156 80.25C71.5 79.2578 72.1719 78.4844 73.0312 77.9297C73.8984 77.3672 74.8359 77.0859 75.8438 77.0859C77.4922 77.0859 78.7734 77.6289 79.6875 78.7148C80.6016 79.8008 81.0586 81.3555 81.0586 83.3789V84.2812H72.4688C72.5 85.5312 72.8633 86.543 73.5586 87.3164C74.2617 88.082 75.1523 88.4648 76.2305 88.4648C76.9961 88.4648 77.6445 88.3086 78.1758 87.9961C78.707 87.6836 79.1719 87.2695 79.5703 86.7539L80.8945 87.7852C79.832 89.418 78.2383 90.2344 76.1133 90.2344ZM75.8438 78.8672C74.9688 78.8672 74.2344 79.1875 73.6406 79.8281C73.0469 80.4609 72.6797 81.3516 72.5391 82.5H78.8906V82.3359C78.8281 81.2344 78.5312 80.3828 78 79.7812C77.4688 79.1719 76.75 78.8672 75.8438 78.8672Z" fill="black"/>
<path id="Action" d="M262.5 136.5L112.207 136.5L138.207 110.5L262.5 110.5L262.5 136.5Z" stroke="black"/>
<path id="Deadline: 12-12-12" d="M18.9902 17V8.46875H21.3984C22.1406 8.46875 22.7969 8.63281 23.3672 8.96094C23.9375 9.28906 24.377 9.75586 24.6855 10.3613C24.998 10.9668 25.1562 11.6621 25.1602 12.4473V12.9922C25.1602 13.7969 25.0039 14.502 24.6914 15.1074C24.3828 15.7129 23.9395 16.1777 23.3613 16.502C22.7871 16.8262 22.1172 16.9922 21.3516 17H18.9902ZM20.1152 9.39453V16.0801H21.2988C22.166 16.0801 22.8398 15.8105 23.3203 15.2715C23.8047 14.7324 24.0469 13.9648 24.0469 12.9688V12.4707C24.0469 11.502 23.8184 10.75 23.3613 10.2148C22.9082 9.67578 22.2637 9.40234 21.4277 9.39453H20.1152ZM29.3262 17.1172C28.4668 17.1172 27.7676 16.8359 27.2285 16.2734C26.6895 15.707 26.4199 14.9512 26.4199 14.0059V13.8066C26.4199 13.1777 26.5391 12.6172 26.7773 12.125C27.0195 11.6289 27.3555 11.2422 27.7852 10.9648C28.2188 10.6836 28.6875 10.543 29.1914 10.543C30.0156 10.543 30.6562 10.8145 31.1133 11.3574C31.5703 11.9004 31.7988 12.6777 31.7988 13.6895V14.1406H27.5039C27.5195 14.7656 27.7012 15.2715 28.0488 15.6582C28.4004 16.041 28.8457 16.2324 29.3848 16.2324C29.7676 16.2324 30.0918 16.1543 30.3574 15.998C30.623 15.8418 30.8555 15.6348 31.0547 15.377L31.7168 15.8926C31.1855 16.709 30.3887 17.1172 29.3262 17.1172ZM29.1914 11.4336C28.7539 11.4336 28.3867 11.5938 28.0898 11.9141C27.793 12.2305 27.6094 12.6758 27.5391 13.25H30.7148V13.168C30.6836 12.6172 30.5352 12.1914 30.2695 11.8906C30.0039 11.5859 29.6445 11.4336 29.1914 11.4336ZM36.9727 17C36.9102 16.875 36.8594 16.6523 36.8203 16.332C36.3164 16.8555 35.7148 17.1172 35.0156 17.1172C34.3906 17.1172 33.877 16.9414 33.4746 16.5898C33.0762 16.2344 32.877 15.7852 32.877 15.2422C32.877 14.582 33.127 14.0703 33.627 13.707C34.1309 13.3398 34.8379 13.1562 35.748 13.1562H36.8027V12.6582C36.8027 12.2793 36.6895 11.9785 36.4629 11.7559C36.2363 11.5293 35.9023 11.416 35.4609 11.416C35.0742 11.416 34.75 11.5137 34.4883 11.709C34.2266 11.9043 34.0957 12.1406 34.0957 12.418H33.0059C33.0059 12.1016 33.1172 11.7969 33.3398 11.5039C33.5664 11.207 33.8711 10.9727 34.2539 10.8008C34.6406 10.6289 35.0645 10.543 35.5254 10.543C36.2559 10.543 36.8281 10.7266 37.2422 11.0938C37.6562 11.457 37.8711 11.959 37.8867 12.5996V15.5176C37.8867 16.0996 37.9609 16.5625 38.1094 16.9062V17H36.9727ZM35.1738 16.1738C35.5137 16.1738 35.8359 16.0859 36.1406 15.9102C36.4453 15.7344 36.666 15.5059 36.8027 15.2246V13.9238H35.9531C34.625 13.9238 33.9609 14.3125 33.9609 15.0898C33.9609 15.4297 34.0742 15.6953 34.3008 15.8867C34.5273 16.0781 34.8184 16.1738 35.1738 16.1738ZM39.3223 13.7773C39.3223 12.8047 39.5527 12.0234 40.0137 11.4336C40.4746 10.8398 41.0781 10.543 41.8242 10.543C42.5664 10.543 43.1543 10.7969 43.5879 11.3047V8H44.6719V17H43.6758L43.623 16.3203C43.1895 16.8516 42.5859 17.1172 41.8125 17.1172C41.0781 17.1172 40.4785 16.8164 40.0137 16.2148C39.5527 15.6133 39.3223 14.8281 39.3223 13.8594V13.7773ZM40.4062 13.9004C40.4062 14.6191 40.5547 15.1816 40.8516 15.5879C41.1484 15.9941 41.5586 16.1973 42.082 16.1973C42.7695 16.1973 43.2715 15.8887 43.5879 15.2715V12.3594C43.2637 11.7617 42.7656 11.4629 42.0938 11.4629C41.5625 11.4629 41.1484 11.668 40.8516 12.0781C40.5547 12.4883 40.4062 13.0957 40.4062 13.9004ZM47.5371 17H46.4531V8H47.5371V17ZM50.4551 17H49.3711V10.6602H50.4551V17ZM49.2832 8.97852C49.2832 8.80273 49.3359 8.6543 49.4414 8.5332C49.5508 8.41211 49.7109 8.35156 49.9219 8.35156C50.1328 8.35156 50.293 8.41211 50.4023 8.5332C50.5117 8.6543 50.5664 8.80273 50.5664 8.97852C50.5664 9.1543 50.5117 9.30078 50.4023 9.41797C50.293 9.53516 50.1328 9.59375 49.9219 9.59375C49.7109 9.59375 49.5508 9.53516 49.4414 9.41797C49.3359 9.30078 49.2832 9.1543 49.2832 8.97852ZM53.2207 10.6602L53.2559 11.457C53.7402 10.8477 54.373 10.543 55.1543 10.543C56.4941 10.543 57.1699 11.2988 57.1816 12.8105V17H56.0977V12.8047C56.0938 12.3477 55.9883 12.0098 55.7812 11.791C55.5781 11.5723 55.2598 11.4629 54.8262 11.4629C54.4746 11.4629 54.166 11.5566 53.9004 11.7441C53.6348 11.9316 53.4277 12.1777 53.2793 12.4824V17H52.1953V10.6602H53.2207ZM61.4473 17.1172C60.5879 17.1172 59.8887 16.8359 59.3496 16.2734C58.8105 15.707 58.541 14.9512 58.541 14.0059V13.8066C58.541 13.1777 58.6602 12.6172 58.8984 12.125C59.1406 11.6289 59.4766 11.2422 59.9062 10.9648C60.3398 10.6836 60.8086 10.543 61.3125 10.543C62.1367 10.543 62.7773 10.8145 63.2344 11.3574C63.6914 11.9004 63.9199 12.6777 63.9199 13.6895V14.1406H59.625C59.6406 14.7656 59.8223 15.2715 60.1699 15.6582C60.5215 16.041 60.9668 16.2324 61.5059 16.2324C61.8887 16.2324 62.2129 16.1543 62.4785 15.998C62.7441 15.8418 62.9766 15.6348 63.1758 15.377L63.8379 15.8926C63.3066 16.709 62.5098 17.1172 61.4473 17.1172ZM61.3125 11.4336C60.875 11.4336 60.5078 11.5938 60.2109 11.9141C59.9141 12.2305 59.7305 12.6758 59.6602 13.25H62.8359V13.168C62.8047 12.6172 62.6562 12.1914 62.3906 11.8906C62.125 11.5859 61.7656 11.4336 61.3125 11.4336ZM65.1445 16.4316C65.1445 16.2441 65.1992 16.0879 65.3086 15.9629C65.4219 15.8379 65.5898 15.7754 65.8125 15.7754C66.0352 15.7754 66.2031 15.8379 66.3164 15.9629C66.4336 16.0879 66.4922 16.2441 66.4922 16.4316C66.4922 16.6113 66.4336 16.7617 66.3164 16.8828C66.2031 17.0039 66.0352 17.0645 65.8125 17.0645C65.5898 17.0645 65.4219 17.0039 65.3086 16.8828C65.1992 16.7617 65.1445 16.6113 65.1445 16.4316ZM65.1504 11.2578C65.1504 11.0703 65.2051 10.9141 65.3145 10.7891C65.4277 10.6641 65.5957 10.6016 65.8184 10.6016C66.041 10.6016 66.209 10.6641 66.3223 10.7891C66.4395 10.9141 66.498 11.0703 66.498 11.2578C66.498 11.4375 66.4395 11.5879 66.3223 11.709C66.209 11.8301 66.041 11.8906 65.8184 11.8906C65.5957 11.8906 65.4277 11.8301 65.3145 11.709C65.2051 11.5879 65.1504 11.4375 65.1504 11.2578ZM74.5137 17H73.4238V9.77539L71.2383 10.5781V9.59375L74.3438 8.42773H74.5137V17ZM83.2793 17H77.6895V16.2207L80.6426 12.9395C81.0801 12.4434 81.3809 12.041 81.5449 11.7324C81.7129 11.4199 81.7969 11.0977 81.7969 10.7656C81.7969 10.3203 81.6621 9.95508 81.3926 9.66992C81.123 9.38477 80.7637 9.24219 80.3145 9.24219C79.7754 9.24219 79.3555 9.39648 79.0547 9.70508C78.7578 10.0098 78.6094 10.4355 78.6094 10.9824H77.5254C77.5254 10.1973 77.7773 9.5625 78.2812 9.07812C78.7891 8.59375 79.4668 8.35156 80.3145 8.35156C81.1074 8.35156 81.7344 8.56055 82.1953 8.97852C82.6562 9.39258 82.8867 9.94531 82.8867 10.6367C82.8867 11.4766 82.3516 12.4766 81.2812 13.6367L78.9961 16.1152H83.2793V17ZM86.7949 13.8184H83.9355V12.9336H86.7949V13.8184ZM91.3066 17H90.2168V9.77539L88.0312 10.5781V9.59375L91.1367 8.42773H91.3066V17ZM100.072 17H94.4824V16.2207L97.4355 12.9395C97.873 12.4434 98.1738 12.041 98.3379 11.7324C98.5059 11.4199 98.5898 11.0977 98.5898 10.7656C98.5898 10.3203 98.4551 9.95508 98.1855 9.66992C97.916 9.38477 97.5566 9.24219 97.1074 9.24219C96.5684 9.24219 96.1484 9.39648 95.8477 9.70508C95.5508 10.0098 95.4023 10.4355 95.4023 10.9824H94.3184C94.3184 10.1973 94.5703 9.5625 95.0742 9.07812C95.582 8.59375 96.2598 8.35156 97.1074 8.35156C97.9004 8.35156 98.5273 8.56055 98.9883 8.97852C99.4492 9.39258 99.6797 9.94531 99.6797 10.6367C99.6797 11.4766 99.1445 12.4766 98.0742 13.6367L95.7891 16.1152H100.072V17ZM103.588 13.8184H100.729V12.9336H103.588V13.8184ZM108.1 17H107.01V9.77539L104.824 10.5781V9.59375L107.93 8.42773H108.1V17ZM116.865 17H111.275V16.2207L114.229 12.9395C114.666 12.4434 114.967 12.041 115.131 11.7324C115.299 11.4199 115.383 11.0977 115.383 10.7656C115.383 10.3203 115.248 9.95508 114.979 9.66992C114.709 9.38477 114.35 9.24219 113.9 9.24219C113.361 9.24219 112.941 9.39648 112.641 9.70508C112.344 10.0098 112.195 10.4355 112.195 10.9824H111.111C111.111 10.1973 111.363 9.5625 111.867 9.07812C112.375 8.59375 113.053 8.35156 113.9 8.35156C114.693 8.35156 115.32 8.56055 115.781 8.97852C116.242 9.39258 116.473 9.94531 116.473 10.6367C116.473 11.4766 115.938 12.4766 114.867 13.6367L112.582 16.1152H116.865V17Z" fill="black"/>
<path id="progress" d="M180.543 62H178.363V47.5508L173.992 49.1562V47.1875L180.203 44.8555H180.543V62ZM197.594 54.7227C197.594 57.2617 197.16 59.1484 196.293 60.3828C195.426 61.6172 194.07 62.2344 192.227 62.2344C190.406 62.2344 189.059 61.6328 188.184 60.4297C187.309 59.2188 186.855 57.4141 186.824 55.0156V52.1211C186.824 49.6133 187.258 47.75 188.125 46.5312C188.992 45.3125 190.352 44.7031 192.203 44.7031C194.039 44.7031 195.391 45.293 196.258 46.4727C197.125 47.6445 197.57 49.457 197.594 51.9102V54.7227ZM195.426 51.7578C195.426 49.9219 195.168 48.5859 194.652 47.75C194.137 46.9062 193.32 46.4844 192.203 46.4844C191.094 46.4844 190.285 46.9023 189.777 47.7383C189.27 48.5742 189.008 49.8594 188.992 51.5938V55.0625C188.992 56.9062 189.258 58.2695 189.789 59.1523C190.328 60.0273 191.141 60.4648 192.227 60.4648C193.297 60.4648 194.09 60.0508 194.605 59.2227C195.129 58.3945 195.402 57.0898 195.426 55.3086V51.7578ZM211.07 54.7227C211.07 57.2617 210.637 59.1484 209.77 60.3828C208.902 61.6172 207.547 62.2344 205.703 62.2344C203.883 62.2344 202.535 61.6328 201.66 60.4297C200.785 59.2188 200.332 57.4141 200.301 55.0156V52.1211C200.301 49.6133 200.734 47.75 201.602 46.5312C202.469 45.3125 203.828 44.7031 205.68 44.7031C207.516 44.7031 208.867 45.293 209.734 46.4727C210.602 47.6445 211.047 49.457 211.07 51.9102V54.7227ZM208.902 51.7578C208.902 49.9219 208.645 48.5859 208.129 47.75C207.613 46.9062 206.797 46.4844 205.68 46.4844C204.57 46.4844 203.762 46.9023 203.254 47.7383C202.746 48.5742 202.484 49.8594 202.469 51.5938V55.0625C202.469 56.9062 202.734 58.2695 203.266 59.1523C203.805 60.0273 204.617 60.4648 205.703 60.4648C206.773 60.4648 207.566 60.0508 208.082 59.2227C208.605 58.3945 208.879 57.0898 208.902 55.3086V51.7578ZM213.66 48.2188C213.66 47.1953 213.984 46.3516 214.633 45.6875C215.289 45.0234 216.129 44.6914 217.152 44.6914C218.191 44.6914 219.031 45.0273 219.672 45.6992C220.32 46.3633 220.645 47.2266 220.645 48.2891V49.1211C220.645 50.1523 220.316 50.9961 219.66 51.6523C219.012 52.3008 218.184 52.625 217.176 52.625C216.16 52.625 215.32 52.3008 214.656 51.6523C213.992 50.9961 213.66 50.125 213.66 49.0391V48.2188ZM215.277 49.1211C215.277 49.7305 215.449 50.2344 215.793 50.6328C216.137 51.0234 216.598 51.2188 217.176 51.2188C217.73 51.2188 218.176 51.0273 218.512 50.6445C218.855 50.2617 219.027 49.7383 219.027 49.0742V48.2188C219.027 47.6094 218.859 47.1055 218.523 46.707C218.188 46.3086 217.73 46.1094 217.152 46.1094C216.574 46.1094 216.117 46.3086 215.781 46.707C215.445 47.1055 215.277 47.625 215.277 48.2656V49.1211ZM221.969 57.8164C221.969 56.793 222.293 55.9531 222.941 55.2969C223.598 54.6328 224.438 54.3008 225.461 54.3008C226.484 54.3008 227.324 54.6289 227.98 55.2852C228.637 55.9414 228.965 56.8125 228.965 57.8984V58.7305C228.965 59.7539 228.637 60.5977 227.98 61.2617C227.332 61.918 226.5 62.2461 225.484 62.2461C224.469 62.2461 223.629 61.9219 222.965 61.2734C222.301 60.6172 221.969 59.7461 221.969 58.6602V57.8164ZM223.586 58.7305C223.586 59.3477 223.758 59.8555 224.102 60.2539C224.445 60.6445 224.906 60.8398 225.484 60.8398C226.047 60.8398 226.496 60.6484 226.832 60.2656C227.168 59.875 227.336 59.3477 227.336 58.6836V57.8164C227.336 57.1992 227.164 56.6953 226.82 56.3047C226.484 55.9141 226.031 55.7188 225.461 55.7188C224.906 55.7188 224.453 55.9141 224.102 56.3047C223.758 56.6875 223.586 57.207 223.586 57.8633V58.7305ZM217.668 60.7109L216.438 59.9375L224.77 46.6016L226 47.375L217.668 60.7109Z" fill="black"/>
<circle id="chart" cx="201" cy="51" r="44.5" stroke="black"/>
<path id="delete" d="M235.835 126.166C235.835 124.707 236.181 123.535 236.872 122.65C237.563 121.76 238.469 121.314 239.588 121.314C240.701 121.314 241.583 121.695 242.233 122.457V117.5H243.859V131H242.365L242.286 129.98C241.636 130.777 240.73 131.176 239.57 131.176C238.469 131.176 237.569 130.725 236.872 129.822C236.181 128.92 235.835 127.742 235.835 126.289V126.166ZM237.461 126.351C237.461 127.429 237.684 128.272 238.129 128.882C238.574 129.491 239.189 129.796 239.975 129.796C241.006 129.796 241.759 129.333 242.233 128.407V124.039C241.747 123.143 241 122.694 239.992 122.694C239.195 122.694 238.574 123.002 238.129 123.617C237.684 124.232 237.461 125.144 237.461 126.351Z" fill="black"/>
<path id="edit" d="M190.835 126.166C190.835 124.707 191.181 123.535 191.872 122.65C192.563 121.76 193.469 121.314 194.588 121.314C195.701 121.314 196.583 121.695 197.233 122.457V117.5H198.859V131H197.365L197.286 129.98C196.636 130.777 195.73 131.176 194.57 131.176C193.469 131.176 192.569 130.725 191.872 129.822C191.181 128.92 190.835 127.742 190.835 126.289V126.166ZM192.461 126.351C192.461 127.429 192.684 128.272 193.129 128.882C193.574 129.491 194.189 129.796 194.975 129.796C196.006 129.796 196.759 129.333 197.233 128.407V124.039C196.747 123.143 196 122.694 194.992 122.694C194.195 122.694 193.574 123.002 193.129 123.617C192.684 124.232 192.461 125.144 192.461 126.351Z" fill="black"/>
<path id="view" d="M145.835 126.166C145.835 124.707 146.181 123.535 146.872 122.65C147.563 121.76 148.469 121.314 149.588 121.314C150.701 121.314 151.583 121.695 152.233 122.457V117.5H153.859V131H152.365L152.286 129.98C151.636 130.777 150.73 131.176 149.57 131.176C148.469 131.176 147.569 130.725 146.872 129.822C146.181 128.92 145.835 127.742 145.835 126.289V126.166ZM147.461 126.351C147.461 127.429 147.684 128.272 148.129 128.882C148.574 129.491 149.189 129.796 149.975 129.796C151.006 129.796 151.759 129.333 152.233 128.407V124.039C151.747 123.143 151 122.694 149.992 122.694C149.195 122.694 148.574 123.002 148.129 123.617C147.684 124.232 147.461 125.144 147.461 126.351Z" fill="black"/>
<defs>
<filter id="filter0_d_0_1" x="0" y="0" width="267" height="145" filterUnits="userSpaceOnUse" color-interpolation-filters="sRGB">
<feFlood flood-opacity="0" result="BackgroundImageFix"/>
<feColorMatrix in="SourceAlpha" type="matrix" values="0 0 0 0 0 0 0 0 0 0 0 0 0 0 0 0 0 0 127 0" result="hardAlpha"/>
<feOffset dy="4"/>
<feGaussianBlur stdDeviation="2"/>
<feComposite in2="hardAlpha" operator="out"/>
<feColorMatrix type="matrix" values="0 0 0 0 0 0 0 0 0 0 0 0 0 0 0 0 0 0 0.25 0"/>
<feBlend mode="normal" in2="BackgroundImageFix" result="effect1_dropShadow_0_1"/>
<feBlend mode="normal" in="SourceGraphic" in2="effect1_dropShadow_0_1" result="shape"/>
</filter>
</defs>
</svg>
